<svg width="1376" height="253" viewBox="0 0 1376 253" fill="none" xmlns="http://www.w3.org/2000/svg">
<path d="M200.327 0L256.401 248.885H203.069L146.993 0H200.327Z" fill="#404040"/>
<path d="M144.963 0H198.295L142.219 248.885H88.8871L144.963 0Z" fill="#404040"/>
<path d="M291.956 0H345.29L309.735 248.885H256.401L291.956 0Z" fill="#404040"/>
<path d="M88.8871 248.885L53.3318 0H0L35.5553 248.885H88.8871Z" fill="#404040"/>
<path d="M406.84 53.332V248.884H357.063V53.332H406.84Z" fill="#404040"/>
<path d="M406.84 0H357.063V31.9993H406.84V0Z" fill="#404040"/>
<path d="M477.667 0V248.885H427.889V0H477.667Z" fill="#404040"/>
<path d="M493.16 151.108C493.16 84.9763 526.938 49.7767 595.559 49.7767C630.758 49.7767 651.024 59.0211 662.402 76.0875V0H712.179V248.885H662.402V225.774C650.669 243.196 630.402 252.44 595.559 252.44C524.449 252.44 493.16 214.397 493.16 151.108ZM602.67 204.441C640.358 204.441 662.402 185.953 662.402 151.108C662.402 117.687 641.424 97.7762 602.67 97.7762C564.981 97.7762 542.937 116.265 542.937 151.108C542.937 184.53 563.915 204.441 602.67 204.441Z" fill="#404040"/>
<path d="M731.33 53.3279H781.107V87.105C795.685 62.9277 820.219 53.3279 854.351 53.3279H876.395V95.9939H854.351C808.485 95.9939 781.107 125.149 781.107 155.726V248.88H731.33V53.3279Z" fill="#404040"/>
<path d="M933.869 53.332V248.884H884.093V53.332H933.869Z" fill="#404040"/>
<path d="M933.869 0H884.093V31.9993H933.869V0Z" fill="#404040"/>
<path d="M945.892 182.392H998.158C1001.36 201.592 1019.49 210.125 1047.58 210.125C1073.89 210.125 1091.67 206.214 1091.67 192.703C1091.67 157.859 955.136 191.992 955.136 109.149C955.136 71.1054 993.536 50.1277 1041.53 50.1277C1095.93 50.1277 1133.27 77.5051 1139.67 120.171H1088.47C1084.2 100.616 1071.4 91.7271 1042.6 91.7271C1021.62 91.7271 1006.34 100.26 1006.34 111.282C1006.34 145.415 1145.71 113.06 1145.71 192.703C1145.71 232.169 1100.91 252.436 1053.98 252.436C991.402 252.436 950.871 229.325 945.892 182.392Z" fill="#404040"/>
<path d="M1156.98 151.105C1156.98 84.9726 1197.87 49.7729 1266.49 49.7729C1337.6 49.7729 1376 87.817 1376 151.105V158.571H1207.11C1209.96 187.371 1230.58 204.437 1266.49 204.437C1292.45 204.437 1310.93 195.904 1319.82 178.838H1373.51C1362.85 226.837 1324.45 252.437 1266.49 252.437C1195.38 252.437 1156.98 214.393 1156.98 151.105ZM1319.47 122.305C1310.22 106.661 1292.45 97.7724 1266.49 97.7724C1241.25 97.7724 1222.76 106.306 1213.51 122.305H1319.47Z" fill="#404040"/>
</svg>
