<svg width="132" height="24" viewBox="0 0 132 24" fill="none" xmlns="http://www.w3.org/2000/svg">
<path d="M19.8487 0L25.1797 23.662H20.1093L14.7781 0H19.8487Z" fill="#8CC63E"/>
<path d="M14.5851 0H19.6554L14.3242 23.662H9.25381L14.5851 0Z" fill="#8CC63E"/>
<path d="M28.56 0H33.6306L30.2503 23.662H25.1797L28.56 0Z" fill="#8CC63E"/>
<path d="M9.25383 23.662L5.87352 0H0.803162L4.18348 23.662H9.25383Z" fill="#8CC63E"/>
<path d="M39.4823 5.07037V23.6619H34.7499V5.07037H39.4823Z" fill="#8CC63E"/>
<path d="M39.4823 0H34.7499V3.04224H39.4823V0Z" fill="#8CC63E"/>
<path d="M46.216 0V23.662H41.4835V0H46.216Z" fill="#8CC63E"/>
<path d="M47.6889 14.3662C47.6889 8.07887 50.9002 4.73237 57.4242 4.73237C60.7706 4.73237 62.6974 5.61126 63.7791 7.23379V0H68.5115V23.662H63.7791V21.4648C62.6636 23.1211 60.7368 24 57.4242 24C50.6636 24 47.6889 20.3831 47.6889 14.3662ZM58.1002 19.4366C61.6833 19.4366 63.7791 17.6789 63.7791 14.3662C63.7791 11.1887 61.7847 9.29578 58.1002 9.29578C54.5171 9.29578 52.4213 11.0535 52.4213 14.3662C52.4213 17.5437 54.4157 19.4366 58.1002 19.4366Z" fill="#8CC63E"/>
<path d="M70.3322 5.07007H75.0646V8.28133C76.4506 5.98274 78.783 5.07007 82.0281 5.07007H84.1238V9.12641H82.0281C77.6675 9.12641 75.0646 11.8983 75.0646 14.8053V23.6616H70.3322V5.07007Z" fill="#8CC63E"/>
<path d="M89.588 5.07037V23.6619H84.8557V5.07037H89.588Z" fill="#8CC63E"/>
<path d="M89.588 0H84.8557V3.04224H89.588V0Z" fill="#8CC63E"/>
<path d="M90.731 17.3404H95.7C96.0042 19.1658 97.7282 19.9771 100.399 19.9771C102.9 19.9771 104.59 19.6052 104.59 18.3207C104.59 15.008 91.6098 18.2531 91.6098 10.3771C91.6098 6.76017 95.2606 4.76578 99.824 4.76578C104.996 4.76578 108.545 7.3686 109.154 11.4249H104.286C103.88 9.56579 102.664 8.72072 99.9255 8.72072C97.9311 8.72072 96.4776 9.53198 96.4776 10.5799C96.4776 13.8249 109.728 10.7489 109.728 18.3207C109.728 22.0728 105.469 23.9996 101.007 23.9996C95.0578 23.9996 91.2044 21.8024 90.731 17.3404Z" fill="#8CC63E"/>
<path d="M110.8 14.3657C110.8 8.0784 114.687 4.7319 121.211 4.7319C127.971 4.7319 131.622 8.34883 131.622 14.3657V15.0756H115.566C115.836 17.8136 117.797 19.4362 121.211 19.4362C123.679 19.4362 125.436 18.6249 126.281 17.0024H131.386C130.372 21.5657 126.721 23.9995 121.211 23.9995C114.45 23.9995 110.8 20.3826 110.8 14.3657ZM126.248 11.6277C125.369 10.1404 123.679 9.29531 121.211 9.29531C118.811 9.29531 117.053 10.1066 116.174 11.6277H126.248Z" fill="#8CC63E"/>
</svg>
